<svg xmlns="http://www.w3.org/2000/svg" width="950" height="406.92" viewBox="0 0 950 406.92">
  <g id="Group_376" data-name="Group 376" transform="translate(0 0)">
    <path id="Path_95" data-name="Path 95" d="M310.7,474.6a9.086,9.086,0,1,0-18.085,1.195l-26.105,34.186a12.657,12.657,0,0,0,1.711,13.9l2.048,2.389,9.4-1.879,10.649-9.4-1.253-10.649,13.155-20.671-.017-.015A9.079,9.079,0,0,0,310.7,474.6Z" transform="translate(-102.179 -247.594)" fill="#ffb9b9"/>
    <path id="Path_96" data-name="Path 96" d="M29.729,420.058l-4.261-15.826,59.016-23.966,6.289,23.358Z" transform="translate(-1.736 -25.917)" fill="#ffb8b8"/>
    <path id="Path_97" data-name="Path 97" d="M104,659.594l-13.739-51.03.645-.174a20.571,20.571,0,0,1,25.21,14.514h0l8.391,31.167Z" transform="translate(-90.258 -257.287)" fill="#2f2e41"/>
    <path id="Path_98" data-name="Path 98" d="M116.309,415.474l-13.255-9.639,30.873-55.714,19.563,14.226Z" transform="translate(-7.024 -23.863)" fill="#ffb8b8"/>
    <path id="Path_99" data-name="Path 99" d="M198.011,665.408l-42.74-31.083.393-.541a20.571,20.571,0,0,1,28.733-4.538h0l26.1,18.984Z" transform="translate(-94.689 -258.489)" fill="#2f2e41"/>
    <path id="Path_100" data-name="Path 100" d="M319.791,565.646l-33.355-32.4a16.844,16.844,0,0,0-22.055-1.232L201.4,601.976l5.638,8.769,60.135-40.716,40.716,53.244,38.837-19.418Z" transform="translate(-97.833 -251.89)" fill="#2f2e41"/>
    <path id="Path_101" data-name="Path 101" d="M308.684,575l-24.43-1.879-17.692-4.289a9.088,9.088,0,1,0-1.724,11.793l0,.013,10.649,4.385,45.727,15.66,5.638-4.385Z" transform="translate(-101.133 -254.355)" fill="#ffb9b9"/>
    <path id="Path_102" data-name="Path 102" d="M269.839,411.751l-13.781,8.77H239.771l-75.794-28.188L53.1,412.377l-3.132-23.8L151.449,344.1,240.4,373.54Z" transform="translate(-3.406 -23.452)" fill="#2f2e41"/>
    <circle id="Ellipse_12" data-name="Ellipse 12" cx="24.43" cy="24.43" r="24.43" transform="translate(212.562 187.222)" fill="#ffb9b9"/>
    <path id="Path_103" data-name="Path 103" d="M403.212,558.45a140.361,140.361,0,0,1-6.883,43.413l-1.83,5.628-8.77,40.09-9.4,2.506-6.89-8.77-13.781-10.022L345.64,615.008l-8.594-14.32-2.681-4.473-9.4-46.98-35.7-20.045-11.9-1.879,2.506-6.89,10.649-14.407,10.649-1.253,3.132-2.506,2.506,1.253,13.812,5.321,44.782-18.92,6.552,1.071L394.5,509.772A140.243,140.243,0,0,1,403.212,558.45Z" transform="translate(-103.01 -249.261)" fill="#ccc"/>
    <path id="Path_104" data-name="Path 104" d="M309.74,323.75l-23.8,15.66-35.529,32.034-2.681-4.472-7.517-37.584h1.88l19.419-35.7Z" transform="translate(-16.372 -20.016)" opacity="0.1"/>
    <path id="Path_105" data-name="Path 105" d="M260.087,289.649l-19.419,35.7-11.275,12.529-10.022,2.506,26.935,29.441,38.21-34.452,23.8-15.661Z" transform="translate(-14.951 -19.741)" fill="#ccc"/>
    <path id="Path_106" data-name="Path 106" d="M323.573,437.9l-2.647,1.018a3.7,3.7,0,0,1-.988-5.131l.043-.063-4.891-.229a36.936,36.936,0,0,1,55.14-4.444c.223-.767,2.65.725,3.641,2.238.333-1.248,2.609,4.785,3.414,9.05.373-1.42,1.806.872.55,3.072.8-.116,1.155,1.919.539,3.053.87-.409.724,2.021-.22,3.644,1.242-.11-.106,25.468-18.743,23.6-1.3-5.961-.932-5.591-2.46-13.257-.711-.755-1.49-1.442-2.267-2.129l-4.205-3.712c-4.89-4.316-9.338-9.643-15.852-11.256-4.477-1.109-7.307-1.359-4.867-6.4-2.2.92-4.262,2.288-6.486,3.142C323.3,439.391,323.615,438.6,323.573,437.9Z" transform="translate(-105.582 -244.41)" fill="#2f2e41"/>
    <circle id="Ellipse_13" data-name="Ellipse 13" cx="4.385" cy="4.385" r="4.385" transform="translate(244.822 210.086)" fill="#ffb9b9"/>
    <rect id="Rectangle_591" data-name="Rectangle 591" width="20.137" height="20.137" transform="translate(43.388 131.003) rotate(-86.19)" fill="#e6e6e6"/>
    <path id="Path_107" data-name="Path 107" d="M124.225,362.131l24.4,1.625L147,388.154l-24.4-1.625Zm23.267,2.615-22.277-1.484-1.484,22.277,22.277,1.484Z" transform="translate(-92.462 -240.552)" fill="#ccc"/>
    <rect id="Rectangle_592" data-name="Rectangle 592" width="20.137" height="20.137" transform="matrix(0.978, -0.21, 0.21, 0.978, 138.588, 55.56)" fill="#e6e6e6"/>
    <path id="Path_108" data-name="Path 108" d="M243.529,276.51l5.137,23.907-23.907,5.137-5.137-23.907ZM247.4,299.6l-4.69-21.828-21.828,4.69,4.69,21.828Z" transform="translate(-99.075 -234.716)" fill="#ccc"/>
    <rect id="Rectangle_593" data-name="Rectangle 593" width="20.137" height="20.137" transform="matrix(0.73, -0.684, 0.684, 0.73, 122.89, 159.644)" fill="#e6e6e6"/>
    <path id="Path_109" data-name="Path 109" d="M251.287,384.692,233.44,401.407l-16.716-17.846,17.846-16.716Zm-17.8,15.213,16.294-15.262-15.262-16.294-16.294,15.262Z" transform="translate(-98.877 -240.873)" fill="#ccc"/>
    <path id="Path_110" data-name="Path 110" d="M1008.763,231.659H412.953a16.4,16.4,0,0,0-16.4,16.4V580.029a16.4,16.4,0,0,0,16.4,16.4h595.81a16.4,16.4,0,0,0,16.4-16.4V248.059a16.4,16.4,0,0,0-16.4-16.4Z" transform="translate(-111.134 -231.659)" fill="#3f3d56"/>
    <rect id="Rectangle_594" data-name="Rectangle 594" width="584.631" height="329.792" transform="translate(307.406 28.982)" fill="#fff"/>
    <circle id="Ellipse_14" data-name="Ellipse 14" cx="5.996" cy="5.996" r="5.996" transform="translate(593.225 7.995)" fill="#fff"/>
    <path id="Path_111" data-name="Path 111" d="M747.326,360.894H329.89V31.1Z" transform="translate(-22.484 -2.12)" fill="#f2f2f2"/>
    <circle id="Ellipse_15" data-name="Ellipse 15" cx="56.197" cy="56.197" r="56.197" transform="translate(342.687 221.702)" fill="#d62828"/>
    <path id="Path_112" data-name="Path 112" d="M526.628,564.984a69.9,69.9,0,1,1,69.9-69.9,69.9,69.9,0,0,1-69.9,69.9Zm0-138.892a68.989,68.989,0,1,0,68.989,68.989,68.989,68.989,0,0,0-68.989-68.989Z" transform="translate(-115.235 -244.849)" fill="#3f3d56"/>
    <rect id="Rectangle_595" data-name="Rectangle 595" width="54.611" height="11.411" transform="translate(702.086 200.318)" fill="#3f3d56"/>
    <rect id="Rectangle_596" data-name="Rectangle 596" width="157.945" height="4.891" transform="translate(650.419 138.497)" fill="#3f3d56"/>
    <rect id="Rectangle_597" data-name="Rectangle 597" width="157.945" height="4.891" transform="translate(650.419 157.711)" fill="#3f3d56"/>
    <rect id="Rectangle_598" data-name="Rectangle 598" width="157.945" height="4.891" transform="translate(650.419 176.925)" fill="#3f3d56"/>
    <rect id="Rectangle_599" data-name="Rectangle 599" width="22.823" height="22.822" transform="translate(827.851 48.718)" fill="#d62828"/>
    <path id="Path_113" data-name="Path 113" d="M1012.493,317.777H984.78V290.064h27.713Zm-26.508-1.2h25.3v-25.3h-25.3Z" transform="translate(-151.225 -235.64)" fill="#ccc"/>
    <path id="Path_114" data-name="Path 114" d="M1039.745,609.879H982.689v-4.111a.815.815,0,0,0-.815-.815H962.312a.815.815,0,0,0-.815.815v4.111H949.27v-4.111a.815.815,0,0,0-.815-.815H928.892a.815.815,0,0,0-.815.815h0v4.111H915.851v-4.111a.815.815,0,0,0-.815-.815H895.474a.815.815,0,0,0-.815.815h0v4.111H882.432v-4.111a.815.815,0,0,0-.815-.815H862.056a.815.815,0,0,0-.815.815v4.111H849.014v-4.111a.815.815,0,0,0-.815-.815H828.637a.815.815,0,0,0-.815.815h0v4.111H815.6v-4.111a.815.815,0,0,0-.815-.815H795.218a.815.815,0,0,0-.815.815h0v4.111H782.177v-4.111a.815.815,0,0,0-.815-.815H628.125a.815.815,0,0,0-.815.815h0v4.111H615.084v-4.111a.815.815,0,0,0-.815-.815H594.707a.815.815,0,0,0-.815.815h0v4.111H581.665v-4.111a.815.815,0,0,0-.815-.815H561.288a.815.815,0,0,0-.815.815h0v4.111H548.246v-4.111a.815.815,0,0,0-.815-.815H527.869a.815.815,0,0,0-.815.815h0v4.111H514.828v-4.111a.815.815,0,0,0-.815-.815H494.451a.815.815,0,0,0-.815.815h0v4.111H481.409v-4.111a.815.815,0,0,0-.815-.815H461.032a.815.815,0,0,0-.815.815v4.111H447.991v-4.111a.815.815,0,0,0-.815-.815H427.613a.815.815,0,0,0-.815.815h0v4.111H389.3a19.562,19.562,0,0,0-19.562,19.562v8.845A19.562,19.562,0,0,0,389.3,657.848h650.441a19.562,19.562,0,0,0,19.562-19.562v-8.845a19.562,19.562,0,0,0-19.561-19.562Z" transform="translate(-109.306 -257.102)" fill="#3f3d56"/>
  </g>
</svg>
